<svg xmlns="http://www.w3.org/2000/svg" viewBox="0 0 93.95 62.94"><g id="Ebene_2" data-name="Ebene 2"><g id="Ebene_1-2" data-name="Ebene 1"><path d="M70.83,48.77a2,2,0,1,1-4,0V20.44c0-7.81-8.38-14.17-16.19-14.17H16.19A16.19,16.19,0,0,0,0,22.46V62.94H16.19V46.75H36.43V62.94H52.62V44.73a2,2,0,1,1,4.05,0V50.8A12.14,12.14,0,0,0,81,50.8V42.7H70.83Z" fill="#4f5b93"/><path d="M88.67,22.43a5.28,5.28,0,0,0-4,1.8l-2.48-1.76a6.59,6.59,0,0,0,.42-2.32,6.92,6.92,0,0,0-.4-2.28l2.47-1.73a5.26,5.26,0,1,0-1.11-2l-2.47,1.73a6.84,6.84,0,0,0-4.23-2.45v-3a5.3,5.3,0,1,0-2.26,0v3a6.81,6.81,0,0,0,0,13.43v3.19a5.28,5.28,0,1,0,2.26,0V26.87a6.78,6.78,0,0,0,4.15-2.41l2.5,1.77a5.14,5.14,0,0,0-.22,1.48,5.28,5.28,0,1,0,5.28-5.28Zm0-12.34a2.56,2.56,0,1,1-2.56,2.56A2.56,2.56,0,0,1,88.67,10.09ZM73.27,5.28a2.56,2.56,0,1,1,2.56,2.56A2.56,2.56,0,0,1,73.27,5.28Zm5.12,29.94a2.56,2.56,0,1,1-2.56-2.56A2.56,2.56,0,0,1,78.39,35.22Zm-2.56-11.5a3.57,3.57,0,1,1,3.57-3.57A3.57,3.57,0,0,1,75.83,23.72Zm12.84,6.55a2.56,2.56,0,1,1,2.56-2.56A2.56,2.56,0,0,1,88.67,30.27Z" fill="#4f5b93"/></g></g></svg>